# xmcd
#
# Track frame offsets: 
#        150
#        14598
#        33393
#        46209
#        65690
#        84647
#        100053
#        112987
#        127535
#        145606
#        161696
#
# Disc length: 2349 seconds
#
# Revision: 0
# Processed by: cddbd v1.5.2PL0 Copyright (c) Steve Scherf et al.
# Submitted via: ExactAudioCopy v1.0b3
#
DISCID=85092b0b
DTITLE=Brandon Steadman Band - Recovery
DYEAR=2014
DGENRE=Country
TTITLE0=All I'm Asking
TTITLE1=Without Saying Goodbye
TTITLE2=Hey Hey Tonight
TTITLE3=Fort Worth Line
TTITLE4=Leaving Austin
TTITLE5=Stupid Girl
TTITLE6=Already Gone
TTITLE7=Stronger Than the Whiskey
TTITLE8=Days and Nights
TTITLE9=When I See You Again
TTITLE10=Who Do You Think You Are
EXTD=
EXTT0=
EXTT1=
EXTT2=
EXTT3=
EXTT4=
EXTT5=
EXTT6=
EXTT7=
EXTT8=
EXTT9=
EXTT10=
PLAYORDER=
